<svg width="53" height="58" viewBox="0 0 53 58" fill="none" xmlns="http://www.w3.org/2000/svg">
<path d="M3 10.5C3 4.97715 7.47715 0.5 13 0.5H43C48.5228 0.5 53 4.97715 53 10.5V40.5C53 46.0228 48.5228 50.5 43 50.5H21.678C20.66 50.5 19.74 51.1067 19.339 52.0423C18.4577 54.0988 15.5423 54.0988 14.661 52.0423C14.26 51.1067 13.34 50.5 12.322 50.5H9.62892C5.96787 50.5 3 47.5321 3 43.8711V10.5Z" fill="#312626"/>
<path d="M17.2666 37.5L8.02664 16.5H11.2666L19.7566 35.88H17.8966L26.4466 16.5H29.4466L20.2366 37.5H17.2666ZM34.8246 26.43H45.6546V29.01H34.8246V26.43ZM35.1246 37.5H32.1246V16.5H46.9446V19.11H35.1246V37.5Z" fill="white"/>
</svg>
